<?xml version="1.0" encoding="UTF-8"?>
<!DOCTYPE svg PUBLIC "-//W3C//DTD SVG 1.1//EN" "http://www.w3.org/Graphics/SVG/1.1/DTD/svg11.dtd">
<!-- Creator: CorelDRAW 2021 (64-Bit) -->
<svg xmlns="http://www.w3.org/2000/svg" xml:space="preserve" width="10.2344mm" height="10.5225mm" version="1.1" style="shape-rendering:geometricPrecision; text-rendering:geometricPrecision; image-rendering:optimizeQuality; fill-rule:evenodd; clip-rule:evenodd"
viewBox="0 0 43.99 45.23"
 xmlns:xlink="http://www.w3.org/1999/xlink"
 xmlns:xodm="http://www.corel.com/coreldraw/odm/2003">
 <defs>
  <style type="text/css">
   <![CDATA[
    .str0 {stroke:#46B843;stroke-width:2.27;stroke-miterlimit:22.9256}
    .fil0 {fill:none}
   ]]>
  </style>
 </defs>
 <g id="Слой_x0020_1">
  <metadata id="CorelCorpID_0Corel-Layer"/>
  <path class="fil0 str0" d="M38.17 26.03l0 0.26 0.12 0.24 4.47 9.15 0 0c0.15,0.3 0.13,0.66 -0.05,0.95 -0.18,0.29 -0.49,0.46 -0.83,0.46l-13.09 0 -1.14 0 0 1.14 0 0.21c0,3.12 -2.53,5.66 -5.66,5.66 -3.12,0 -5.66,-2.53 -5.66,-5.66l0 -0.21 0 -1.14 -1.14 0 -13.08 0c-0.34,0 -0.65,-0.17 -0.83,-0.46 -0.18,-0.29 -0.2,-0.65 -0.05,-0.95l0 -0 4.47 -9.15 0.12 -0.24 0 -0.26 0 -8.73 0 0 0 -0.01c-0.07,-6.6 3.96,-12.55 10.12,-14.93 0.05,-0.02 0.09,-0.04 0.14,-0.05 0.09,-0.03 0.21,-0.08 0.38,-0.14 0.33,-0.11 0.8,-0.27 1.37,-0.42 1.14,-0.31 2.61,-0.61 4.03,-0.61 1.42,0 2.97,0.3 4.2,0.61 0.61,0.16 1.12,0.31 1.48,0.43 0.18,0.06 0.32,0.11 0.41,0.14 0.05,0.02 0.08,0.03 0.11,0.04 6.06,2.15 10.13,8.61 10.13,14.94 0,0 0,0 0,0l0 8.74zm-32.65 11.54l32.5 0"/>
 </g>
</svg>
